#!OML:ASF H:\Dans Jumps\Project 1\Capture day 1\Session 1\subject.ASF
:FULLY-SPECIFIED
:DEGREES
326
root 0.31928 22.7797 -2.22472 12.2617 0.61175 -2.21056
lowerback 1.63996 0.0808764 -1.87894
upperback 0.474719 0.0826673 1.05131
thorax -0.437124 0.0418804 2.12935
lowerneck -7.93746 0.0187607 -2.28345
upperneck 20.8524 -0.0364863 2.08305
head 7.71953 -0.00170569 1.06606
rclavicle 4.37326e-015 -6.95746e-016
rhumerus -29.7867 4.71039 -72.6341
rradius 40.2409
rwrist 30.984
rhand -13.7819 -24.1929
rfingers 7.12502
rthumb 12.3394 -53.8088
lclavicle 4.37326e-015 -6.95746e-016
lhumerus -40.4163 -25.0574 75.0265
lradius 29.0429
lwrist 23.9715
lhand -18.7223 -1.86056
lfingers 7.12502
lthumb 7.57316 27.9839
rfemur -28.4902 -11.9711 21.0233
rtibia 92.9887
rfoot 8.97079 -1.14859
rtoes 18.5254
lfemur -30.8435 12.4241 -15.3915
ltibia 77.1518
lfoot 14.7047 2.4277
ltoes -7.04585
327
root 0.320372 22.9564 -2.04594 12.3044 0.476951 -2.07981
lowerback 2.70951 0.180106 -1.99165
upperback 0.732809 0.194714 0.989786
thorax -0.777524 0.0994666 2.12549
lowerneck -8.20972 -0.0224902 -2.231
upperneck 20.633 -0.079024 2.01172
head 7.69751 -0.0226805 1.02913
rclavicle 2.48481e-015 1.98785e-015
rhumerus -29.1972 4.06602 -73.069
rradius 39.7416
rwrist 31.1786
rhand -13.8419 -24.152
rfingers 7.12502
rthumb 12.2815 -53.7713
lclavicle 2.48481e-015 1.98785e-015
lhumerus -39.8162 -24.5453 75.3031
lradius 28.7042
lwrist 23.7523
lhand -18.9083 -2.10309
lfingers 7.12502
lthumb 7.39362 27.7477
rfemur -30.9295 -12.081 21.3807
rtibia 94.2759
rfoot 7.39691 -0.335443
rtoes 16.9639
lfemur -32.4314 12.5607 -16.0914
ltibia 76.8117
lfoot 12.8045 3.63191
ltoes -6.85542
328
root 0.322796 23.0482 -1.90188 12.2023 0.358789 -1.86432
lowerback 3.929 0.268648 -2.18741
upperback 1.01353 0.282934 0.900938
thorax -1.17693 0.145856 2.13833
lowerneck -8.44776 -0.0435743 -2.13464
upperneck 20.3858 -0.0995983 1.9291
head 7.65955 -0.031154 0.982841
rclavicle 3.52843e-015 5.96354e-016
rhumerus -28.6971 3.32847 -73.484
rradius 39.3703
rwrist 31.2788
rhand -13.9346 -24.1326
rfingers 7.12502
rthumb 12.1922 -53.7572
lclavicle 3.52843e-015 5.96354e-016
lhumerus -39.2422 -24.0229 75.553
lradius 28.3864
lwrist 23.6222
lhand -19.1036 -2.28419
lfingers 7.12502
lthumb 7.20518 27.5731
rfemur -33.5225 -12.1858 21.6419
rtibia 95.5019
rfoot 5.8852 0.532234
rtoes 15.3647
lfemur -34.1762 12.6422 -16.8578
ltibia 76.47
lfoot 11.1449 4.47785
ltoes -6.93012
329
root 0.325006 23.1263 -1.75575 11.9619 0.274026 -1.60348
lowerback 5.27567 0.344772 -2.42221
upperback 1.3156 0.34361 0.801811
thorax -1.6229 0.179207 2.16164
lowerneck -8.66387 -0.0495769 -2.01905
upperneck 20.1361 -0.104929 1.85255
head 7.61648 -0.0306569 0.936715
rclavicle 3.8763e-015 4.96962e-015
rhumerus -28.2777 2.58571 -73.8834
rradius 39.0881
rwrist 31.3701
rhand -14.0362 -24.1282
rfingers 7.12502
rthumb 12.0942 -53.7587
lclavicle 3.8763e-015 4.96962e-015
lhumerus -38.6961 -23.4996 75.7937
lradius 28.0832
lwrist 23.5806
lhand -19.3145 -2.41786
lfingers 7.12502
lthumb 7.00155 27.4463
rfemur -35.825 -12.3064 21.841
rtibia 96.2151
rfoot 4.41356 1.3757
rtoes 13.7061
lfemur -35.6485 12.7056 -17.6263
ltibia 75.7863
lfoot 9.66616 4.97988
ltoes -7.17925
330
root 0.327643 23.1905 -1.60616 11.6254 0.228667 -1.32443
lowerback 6.68362 0.410449 -2.66684
upperback 1.62865 0.380538 0.706896
thorax -2.08842 0.201254 2.19496
lowerneck -8.86092 -0.0512123 -1.92387
upperneck 19.9054 -0.108416 1.80782
head 7.57622 -0.0281773 0.904787
rclavicle 4.82053e-015 -1.19271e-015
rhumerus -27.9108 1.91973 -74.2635
rradius 38.8316
rwrist 31.5203
rhand -14.156 -24.1108
rfingers 7.12502
rthumb 11.9787 -53.748
lclavicle 4.82053e-015 -1.19271e-015
lhumerus -38.1765 -22.9856 76.0483
lradius 27.7817
lwrist 23.5891
lhand -19.5514 -2.53912
lfingers 7.12502
lthumb 6.77287 27.3326
rfemur -37.8619 -12.4438 22.0077
rtibia 96.5192
rfoot 2.88941 2.11816
rtoes 12.03
lfemur -36.9277 12.7722 -18.3809
ltibia 74.952
lfoot 8.23659 5.24395
ltoes -7.54927
331
root 0.330921 23.2408 -1.45197 11.2467 0.235116 -1.05672
lowerback 8.08253 0.464413 -2.88956
upperback 1.93496 0.396108 0.62779
thorax -2.5517 0.21304 2.23354
lowerneck -9.03801 -0.0561929 -1.85882
upperneck 19.7096 -0.118539 1.79342
head 7.54395 -0.0285487 0.887474
rclavicle 4.07509e-015 2.08724e-015
rhumerus -27.5879 1.37911 -74.6204
rradius 38.5637
rwrist 31.757
rhand -14.283 -24.0806
rfingers 7.12502
rthumb 11.8562 -53.725
lclavicle 4.07509e-015 2.08724e-015
lhumerus -37.6946 -22.5028 76.3361
lradius 27.4807
lwrist 23.6167
lhand -19.8093 -2.68882
lfingers 7.12502
lthumb 6.52388 27.1907
rfemur -39.6951 -12.5944 22.1823
rtibia 96.3828
rfoot 1.4187 2.73018
rtoes 10.3696
lfemur -38.0621 12.8435 -19.1069
ltibia 73.9075
lfoot 6.96974 5.32467
ltoes -7.90564
